<?xml version="1.0" encoding="UTF-8"?>
<svg xmlns="http://www.w3.org/2000/svg" xmlns:xlink="http://www.w3.org/1999/xlink" width="180px" height="180px" viewBox="0 0 180 180" version="1.1">
<g id="surface1">
<rect x="0" y="0" width="180" height="180" style="fill:rgb(50.588235%,70.196078%,82.745098%);fill-opacity:1;stroke:none;"/>
<path style=" stroke:none;fill-rule:nonzero;fill:rgb(100%,100%,100%);fill-opacity:1;" d="M 60.316406 111.054688 C 60.445312 111.179688 60.507812 111.304688 60.507812 111.429688 C 60.636719 111.429688 60.765625 111.488281 60.890625 111.613281 C 64.335938 115.324219 68.230469 118.789062 72.574219 122.003906 C 76.914062 125.09375 81.894531 126.765625 87.507812 127.011719 C 87.636719 127.011719 87.765625 127.078125 87.890625 127.199219 L 88.46875 127.199219 C 88.59375 127.199219 88.722656 127.261719 88.851562 127.386719 L 90.957031 127.386719 C 91.59375 127.261719 92.167969 127.136719 92.679688 127.011719 C 94.726562 126.640625 96.679688 125.882812 98.425781 124.789062 C 100.339844 123.671875 101.808594 122.3125 102.828125 120.707031 L 103.210938 119.960938 L 103.59375 119.222656 C 103.851562 118.355469 104.042969 117.550781 104.171875 116.808594 C 104.296875 116.066406 104.363281 115.386719 104.363281 114.769531 C 104.363281 111.429688 102.828125 108.644531 99.765625 106.417969 C 96.910156 104.113281 93.671875 102.292969 90.191406 101.039062 C 88.878906 100.570312 87.535156 100.199219 86.167969 99.925781 C 84.96875 99.574219 83.753906 99.265625 82.53125 98.996094 L 82.148438 98.996094 C 82.019531 98.875 81.894531 98.8125 81.765625 98.8125 C 75.558594 97.347656 69.613281 94.96875 64.148438 91.761719 C 58.65625 88.421875 54.890625 83.660156 52.847656 77.476562 C 52.449219 76.183594 52.066406 74.882812 51.699219 73.578125 C 51.4375 72.167969 51.246094 70.742188 51.125 69.3125 C 51.007812 68.890625 50.945312 68.453125 50.933594 68.011719 L 50.933594 63.5625 C 51.0625 62.570312 51.253906 61.582031 51.507812 60.59375 C 51.90625 58.066406 52.546875 55.582031 53.421875 53.171875 C 54.316406 50.699219 55.464844 48.472656 56.871094 46.492188 C 60.957031 39.9375 66.1875 35.234375 72.574219 32.390625 C 79.085938 29.546875 85.851562 28.125 92.871094 28.125 C 94.53125 28.125 96.191406 28.246094 97.851562 28.496094 C 99.644531 28.621094 101.433594 28.804688 103.210938 29.050781 C 107.871094 29.808594 112.425781 31.054688 116.808594 32.761719 C 121.40625 34.496094 125.617188 36.535156 129.449219 38.886719 L 118.914062 61.707031 C 115.476562 59.238281 111.824219 57.066406 108 55.214844 C 104.171875 53.355469 100.023438 52.429688 95.554688 52.429688 L 94.019531 52.429688 C 91.082031 52.800781 88.339844 54.097656 85.785156 56.324219 C 83.234375 58.425781 81.957031 60.71875 81.957031 63.191406 L 81.957031 64.304688 C 82.082031 64.675781 82.273438 65.042969 82.53125 65.417969 C 82.785156 66.285156 83.234375 67.085938 83.871094 67.828125 C 84.507812 68.570312 85.210938 69.25 85.976562 69.871094 C 87.382812 70.984375 89.421875 72.035156 92.105469 73.023438 C 94.785156 73.890625 97.597656 74.753906 100.53125 75.621094 C 102.957031 76.238281 105.316406 76.859375 107.617188 77.476562 C 109.914062 77.972656 111.828125 78.464844 113.363281 78.960938 C 120.511719 81.433594 125.871094 85.578125 129.449219 91.390625 C 133.019531 97.082031 134.871094 103.140625 135 109.574219 L 135 110.5 C 135 111.242188 134.9375 111.988281 134.808594 112.726562 L 134.808594 114.769531 C 134.042969 121.199219 131.875 127.324219 128.296875 133.136719 C 124.851562 138.949219 120.191406 143.402344 114.320312 146.496094 C 112.140625 147.488281 109.902344 148.355469 107.617188 149.089844 C 105.335938 149.707031 103.035156 150.265625 100.722656 150.761719 C 98.828125 151.132812 96.910156 151.378906 94.980469 151.503906 C 93.136719 151.746094 91.28125 151.871094 89.425781 151.875 L 87.316406 151.875 C 79.660156 151.628906 72.128906 150.019531 64.722656 147.050781 C 57.316406 143.957031 50.742188 139.875 45 134.804688 Z M 60.316406 111.054688 "/>
</g>
</svg>
