<?xml version="1.0" encoding="UTF-8"?>
<svg xmlns="http://www.w3.org/2000/svg" xmlns:xlink="http://www.w3.org/1999/xlink" width="192px" height="192px" viewBox="0 0 192 192" version="1.1">
<g id="surface1">
<rect x="0" y="0" width="192" height="192" style="fill:rgb(50.588235%,70.196078%,82.745098%);fill-opacity:1;stroke:none;"/>
<path style=" stroke:none;fill-rule:nonzero;fill:rgb(100%,100%,100%);fill-opacity:1;" d="M 64.339844 118.460938 C 64.472656 118.59375 64.542969 118.726562 64.542969 118.859375 C 64.679688 118.859375 64.816406 118.921875 64.949219 119.054688 C 68.625 123.011719 72.78125 126.707031 77.410156 130.136719 C 82.039062 133.433594 87.351562 135.214844 93.34375 135.480469 C 93.480469 135.480469 93.617188 135.546875 93.75 135.679688 L 94.363281 135.679688 C 94.5 135.679688 94.636719 135.742188 94.773438 135.878906 L 97.019531 135.878906 C 97.703125 135.742188 98.3125 135.613281 98.859375 135.480469 C 101.042969 135.082031 103.125 134.277344 104.988281 133.105469 C 107.027344 131.917969 108.59375 130.464844 109.683594 128.753906 L 110.09375 127.960938 L 110.5 127.167969 C 110.773438 126.246094 110.976562 125.386719 111.113281 124.59375 C 111.25 123.804688 111.320312 123.078125 111.320312 122.417969 C 111.320312 118.859375 109.683594 115.890625 106.417969 113.511719 C 103.371094 111.054688 99.917969 109.113281 96.203125 107.773438 C 94.804688 107.273438 93.371094 106.878906 91.914062 106.585938 C 90.632812 106.210938 89.339844 105.882812 88.03125 105.597656 L 87.625 105.597656 C 87.488281 105.46875 87.351562 105.398438 87.214844 105.398438 C 80.59375 103.835938 74.257812 101.300781 68.425781 97.878906 C 62.566406 94.316406 58.550781 89.238281 56.371094 82.640625 C 55.945312 81.261719 55.535156 79.875 55.144531 78.484375 C 54.867188 76.980469 54.664062 75.460938 54.535156 73.933594 C 54.410156 73.480469 54.339844 73.015625 54.332031 72.546875 L 54.332031 67.796875 C 54.464844 66.742188 54.667969 65.6875 54.941406 64.632812 C 55.367188 61.9375 56.050781 59.285156 56.984375 56.714844 C 57.9375 54.078125 59.164062 51.703125 60.660156 49.59375 C 65.019531 42.597656 70.601562 37.585938 77.410156 34.550781 C 84.355469 31.515625 91.574219 30 99.0625 30 C 100.835938 30 102.605469 30.132812 104.375 30.394531 C 106.289062 30.527344 108.195312 30.726562 110.09375 30.988281 C 115.0625 31.796875 119.921875 33.125 124.59375 34.945312 C 129.496094 36.792969 133.992188 38.96875 138.078125 41.476562 L 126.84375 65.820312 C 123.175781 63.1875 119.28125 60.871094 115.199219 58.894531 C 111.113281 56.914062 106.691406 55.925781 101.921875 55.925781 L 100.289062 55.925781 C 97.15625 56.320312 94.230469 57.707031 91.503906 60.078125 C 88.78125 62.324219 87.421875 64.765625 87.421875 67.402344 L 87.421875 68.589844 C 87.554688 68.984375 87.761719 69.382812 88.03125 69.777344 C 88.304688 70.703125 88.78125 71.558594 89.464844 72.351562 C 90.144531 73.140625 90.894531 73.867188 91.710938 74.527344 C 93.207031 75.714844 95.386719 76.835938 98.246094 77.890625 C 101.105469 78.816406 104.101562 79.738281 107.234375 80.664062 C 109.820312 81.320312 112.339844 81.980469 114.792969 82.640625 C 117.242188 83.167969 119.285156 83.699219 120.917969 84.226562 C 128.542969 86.863281 134.265625 91.28125 138.078125 97.484375 C 141.890625 103.554688 143.863281 110.019531 144 116.878906 L 144 117.867188 C 144 118.660156 143.933594 119.453125 143.796875 120.242188 L 143.796875 122.417969 C 142.980469 129.28125 140.664062 135.8125 136.851562 142.011719 C 133.175781 148.214844 128.203125 152.960938 121.941406 156.261719 C 119.617188 157.320312 117.230469 158.246094 114.792969 159.03125 C 112.355469 159.6875 109.90625 160.28125 107.4375 160.8125 C 105.417969 161.207031 103.371094 161.472656 101.3125 161.605469 C 99.347656 161.863281 97.367188 161.996094 95.386719 162 L 93.140625 162 C 84.96875 161.738281 76.9375 160.019531 69.035156 156.851562 C 61.140625 153.554688 54.125 149.203125 48 143.792969 Z M 64.339844 118.460938 "/>
</g>
</svg>
