<?xml version="1.0" encoding="UTF-8"?>
<svg xmlns="http://www.w3.org/2000/svg" xmlns:xlink="http://www.w3.org/1999/xlink" width="512px" height="512px" viewBox="0 0 512 512" version="1.1">
<g id="surface1">
<rect x="0" y="0" width="512" height="512" style="fill:rgb(50.588235%,70.196078%,82.745098%);fill-opacity:1;stroke:none;"/>
<path style=" stroke:none;fill-rule:nonzero;fill:rgb(100%,100%,100%);fill-opacity:1;" d="M 171.570312 315.894531 C 171.929688 316.25 172.113281 316.601562 172.113281 316.953125 C 172.480469 316.953125 172.839844 317.125 173.203125 317.480469 C 183.003906 328.035156 194.082031 337.886719 206.429688 347.035156 C 218.773438 355.828125 232.9375 360.574219 248.914062 361.28125 C 249.28125 361.28125 249.640625 361.460938 250.003906 361.8125 L 251.640625 361.8125 C 252 361.8125 252.367188 361.984375 252.726562 362.339844 L 258.71875 362.339844 C 260.539062 361.984375 262.167969 361.636719 263.625 361.28125 C 269.445312 360.222656 274.996094 358.070312 279.964844 354.949219 C 285.40625 351.78125 289.585938 347.910156 292.488281 343.339844 L 293.582031 341.226562 L 294.671875 339.117188 C 295.398438 336.65625 295.941406 334.367188 296.308594 332.253906 C 296.667969 330.148438 296.851562 328.210938 296.851562 326.453125 C 296.851562 316.953125 292.488281 309.039062 283.777344 302.703125 C 275.65625 296.148438 266.449219 290.972656 256.542969 287.398438 C 252.816406 286.066406 248.992188 285.007812 245.101562 284.234375 C 241.6875 283.234375 238.234375 282.351562 234.753906 281.59375 L 233.667969 281.59375 C 233.300781 281.246094 232.9375 281.066406 232.578125 281.066406 C 214.917969 276.898438 198.015625 270.132812 182.464844 261.011719 C 166.847656 251.515625 156.136719 237.96875 150.328125 220.375 C 149.1875 216.695312 148.097656 213 147.058594 209.292969 C 146.3125 205.277344 145.765625 201.226562 145.425781 197.160156 C 145.089844 195.953125 144.90625 194.710938 144.882812 193.460938 L 144.882812 180.796875 C 145.242188 177.980469 145.785156 175.167969 146.511719 172.351562 C 147.640625 165.164062 149.464844 158.097656 151.957031 151.242188 C 154.5 144.207031 157.769531 137.871094 161.761719 132.246094 C 173.382812 113.597656 188.273438 100.226562 206.429688 92.136719 C 224.953125 84.042969 244.195312 80 264.167969 80 C 268.890625 80 273.609375 80.351562 278.332031 81.054688 C 283.433594 81.40625 288.519531 81.933594 293.582031 82.636719 C 306.828125 84.792969 319.792969 88.332031 332.253906 93.191406 C 345.328125 98.117188 357.3125 103.921875 368.207031 110.605469 L 338.25 175.519531 C 328.472656 168.5 318.082031 162.320312 307.199219 157.050781 C 296.308594 151.769531 284.503906 149.132812 271.796875 149.132812 L 267.433594 149.132812 C 259.082031 150.1875 251.277344 153.882812 244.011719 160.210938 C 236.753906 166.195312 233.121094 172.707031 233.121094 179.742188 L 233.121094 182.90625 C 233.484375 183.960938 234.027344 185.015625 234.753906 186.074219 C 235.480469 188.539062 236.753906 190.824219 238.566406 192.9375 C 240.382812 195.046875 242.378906 196.980469 244.558594 198.742188 C 248.554688 201.910156 254.359375 204.898438 261.992188 207.710938 C 269.613281 210.175781 277.605469 212.636719 285.960938 215.101562 C 292.855469 216.859375 299.570312 218.617188 306.109375 220.375 C 312.648438 221.785156 318.09375 223.195312 322.453125 224.601562 C 342.785156 231.636719 358.039062 243.421875 368.207031 259.957031 C 378.371094 276.140625 383.636719 293.382812 384 311.671875 L 384 314.3125 C 384 316.425781 383.824219 318.539062 383.457031 320.648438 L 383.457031 326.453125 C 381.28125 344.746094 375.105469 362.160156 364.9375 378.699219 C 355.132812 395.234375 341.878906 407.902344 325.175781 416.699219 C 318.976562 419.523438 312.609375 421.988281 306.109375 424.082031 C 299.621094 425.832031 293.082031 427.417969 286.503906 428.835938 C 281.109375 429.886719 275.652344 430.589844 270.164062 430.945312 C 264.925781 431.636719 259.648438 431.988281 254.363281 432 L 248.371094 432 C 226.585938 431.300781 205.164062 426.722656 184.097656 418.273438 C 163.039062 409.484375 144.335938 397.871094 128 383.449219 Z M 171.570312 315.894531 "/>
</g>
</svg>
